<svg width="100%" viewBox="0 0 300 320" xmlns="http://www.w3.org/2000/svg">
<title>Rustic star</title>
<defs>
<linearGradient id="starG" x1="0" y1="0" x2="1" y2="1"><stop offset="0%" stop-color="#DABB60"/><stop offset="30%" stop-color="#C4960E"/><stop offset="70%" stop-color="#A07010"/><stop offset="100%" stop-color="#8B6914"/></linearGradient>
<linearGradient id="starHL" x1="0" y1="0" x2="1" y2="1"><stop offset="0%" stop-color="#F0D868"/><stop offset="100%" stop-color="#C4A030"/></linearGradient>
</defs>
<g transform="translate(150, 155)">
<ellipse cx="0" cy="120" rx="60" ry="9" fill="#0A0400" opacity="0.1"/>
<polygon points="0,-115 -21,-37 -105,-37 -35,14 -60,95 0,44 60,95 35,14 105,-37 21,-37" fill="url(#starG)" stroke="#6A5010" stroke-width="1.8"/>
<polygon points="0,-115 -21,-37 0,-32" fill="url(#starHL)" stroke="none" opacity="0.6"/>
<polygon points="0,-115 21,-37 0,-32" fill="#B8860B" stroke="none" opacity="0.4"/>
<polygon points="-105,-37 -21,-37 -29,-12" fill="url(#starHL)" stroke="none" opacity="0.5"/>
<polygon points="-105,-37 -35,14 -29,-12" fill="#8B6914" stroke="none" opacity="0.3"/>
<polygon points="105,-37 21,-37 29,-12" fill="url(#starHL)" stroke="none" opacity="0.5"/>
<polygon points="105,-37 35,14 29,-12" fill="#8B6914" stroke="none" opacity="0.3"/>
<polygon points="-60,95 -35,14 -9,26" fill="url(#starHL)" stroke="none" opacity="0.45"/>
<polygon points="-60,95 0,44 -9,26" fill="#8B6914" stroke="none" opacity="0.3"/>
<polygon points="60,95 35,14 9,26" fill="url(#starHL)" stroke="none" opacity="0.45"/>
<polygon points="60,95 0,44 9,26" fill="#8B6914" stroke="none" opacity="0.3"/>
<polygon points="0,-32 -29,-12 -18,21 18,21 29,-12" fill="#A07010" stroke="#8B6914" stroke-width="0.8" opacity="0.5"/>
<circle cx="0" cy="2" r="18" fill="#8B6914" stroke="#6A5010" stroke-width="1.4"/>
<circle cx="0" cy="2" r="13" fill="#A07010" stroke="#7A5C10" stroke-width="0.7"/>
<polygon points="0,-9 -2.5,-3.5 -8,-3.5 -3.5,0.5 -5,7 0,3.5 5,7 3.5,0.5 8,-3.5 2.5,-3.5" fill="#C4960E" stroke="none"/>
<g opacity="0.08" fill="#6A5010">
<circle cx="-6" cy="-58" r="3.5"/><circle cx="12" cy="-70" r="2.5"/>
<circle cx="-46" cy="-18" r="3"/><circle cx="46" cy="-18" r="2.5"/>
<circle cx="-23" cy="58" r="3.5"/><circle cx="23" cy="58" r="3"/>
</g>
<line x1="0" y1="-115" x2="-21" y2="-37" stroke="#DABB60" stroke-width="0.7" opacity="0.3"/>
<line x1="0" y1="-115" x2="21" y2="-37" stroke="#6A5010" stroke-width="0.7" opacity="0.2"/>
</g>
</svg>